<?xml version="1.0" encoding="UTF-8" standalone="no"?>
<svg
   version="1.1"
   width="2409.4487"
   height="2000.6458"
   id="svg49"
   viewBox="0 0 2409.4487 2000.6458"
   sodipodi:docname="Logo.svg"
   inkscape:version="1.1.1 (3bf5ae0d25, 2021-09-20)"
   xmlns:inkscape="http://www.inkscape.org/namespaces/inkscape"
   xmlns:sodipodi="http://sodipodi.sourceforge.net/DTD/sodipodi-0.dtd"
   xmlns:xlink="http://www.w3.org/1999/xlink"
   xmlns="http://www.w3.org/2000/svg"
   xmlns:svg="http://www.w3.org/2000/svg">
  <sodipodi:namedview
     id="namedview51"
     pagecolor="#ffffff"
     bordercolor="#666666"
     borderopacity="1.0"
     inkscape:pageshadow="2"
     inkscape:pageopacity="0.0"
     inkscape:pagecheckerboard="0"
     showgrid="false"
     inkscape:zoom="0.2888649"
     inkscape:cx="1069.7042"
     inkscape:cy="662.93966"
     inkscape:window-width="2160"
     inkscape:window-height="1349"
     inkscape:window-x="-9"
     inkscape:window-y="-9"
     inkscape:window-maximized="1"
     inkscape:current-layer="svg49"
     height="2000.6457px" />
  <path
     d="m 2017.4929,411.15539 c 14.3359,8.5928 15.3427,-15.038 36.365,43.4433 3.4818,9.6886 4.6748,36.0878 5.5364,46.2322 -42.1987,-1.2067 -29.2161,7.6498 -55.4177,-22.0088 l -20.9283,-23.4201 z M 801.7841,1349.719 c 89.4908,-286.2289 282.9538,-468.82331 605.6724,-568.09311 65.598,-20.1758 252.2824,-44.3253 268.0747,-10.0876 l 84.9834,30.1454 c 2.2126,0.8729 5.5769,2.539 7.6799,3.5079 819.0767,225.85271 -357.3299,-377.6421 -188.7376,-324.3383 365.054,-98.4702 374.8942,300.6578 613.4996,144.2251 -65.0506,-233.5352 -130.4824,-323.5996 63.1154,-450.4367 l -11.9013,-44.8471 c -17.7426,-12.2508 -13.4125,-10.0048 -38.6817,-20.0584 L 2094.488,79.813885 c -54.2858,-11.9708 -99.3595,-16.0694 -159.941,-13.8458 C 1502.0261,81.842885 1298.1919,434.89649 1119.8247,664.34309 953.7697,877.94759 585.7851,1264.594 257.4595,1079.4088 183.8589,1037.8946 48.0308,899.79839 26.8893,861.13229 c -2.4507,-4.4837 -5.7803,-4.0467 -8.6996,-6.0233 -19.61,215.26381 -43.2229,440.92891 185.08,563.21531 154.5264,82.7712 380.808,23.271 526.0385,-116.0528 59.4242,-57.0068 49.7455,28.4851 72.4759,47.4475 z"
     style="fill:#383018;fill-rule:evenodd;stroke:#ee5b26;stroke-width:10;stroke-linecap:butt;stroke-linejoin:miter;stroke-dasharray:none;fill-opacity:1;stroke-opacity:1;stroke-miterlimit:4"
     id="path9" />
  <path
     d="m 804.017,1504.7077 c 37.971,157.1414 136.8446,294.6516 245.6423,402.4113 1.77,-4.0606 6.6584,-12.9333 8.1903,-15.3978 1.2519,-2.0092 4.5285,-7.1038 5.8223,-9.1524 1.415,-2.2453 4.5145,-6.5247 6.6598,-9.8627 -131.5315,-399.9162 203.0108,-1014.25811 605.1995,-1101.16781 -72.6113,-21.2675 -133.9113,28.4009 -209.5056,55.0409 -133.4898,47.0437 -258.1343,144.1495 -358.7603,235.78221 -123.3679,110.5196 -322.3196,324.8154 -303.2483,442.3463 z"
     style="fill:#383018;fill-rule:evenodd;stroke:#ee5b26;stroke-width:10;stroke-linecap:butt;stroke-linejoin:miter;stroke-dasharray:none;fill-opacity:1;stroke-opacity:1;stroke-miterlimit:4"
     id="path11" />
  <path
     d="m 803.7366,1472.9622 c 7.3772,-80.752 245.6345,-356.9571 303.5287,-410.6008 100.626,-91.63271 225.2705,-188.73851 358.7603,-235.78221 110.1514,-38.819 111.841,-29.7749 209.5056,-55.0409 -15.7923,-34.2377 -202.4767,-10.0882 -268.0747,10.0876 -217.1113,53.2042 -713.4921,340.96171 -603.7199,691.33631 z"
     style="fill:#383018;fill-rule:evenodd;stroke:#ee5b26;stroke-width:10;stroke-linecap:butt;stroke-linejoin:miter;stroke-dasharray:none;fill-opacity:1;stroke-opacity:1;stroke-miterlimit:4"
     id="path13" />
  <path
     d="m 2256.0719,174.64169 38.3257,-19.0544 c -35.0484,-29.8755 -7.0313,-15.5147 -50.227,-25.7927 z"
     style="fill:#383018;fill-rule:evenodd;stroke:#ee5b26;stroke-width:10;stroke-linecap:butt;stroke-linejoin:miter;stroke-dasharray:none;fill-opacity:1;stroke-opacity:1;stroke-miterlimit:4"
     id="path15" />
  <path
     d="m 1049.6593,1907.119 c 31.9587,17.6354 -21.0121,33.7778 35.4741,11.2776 l -14.8017,-45.6905 c -7.2718,11.3139 -15.2287,21.9256 -20.6724,34.4129 z"
     style="fill:#383018;fill-rule:evenodd;stroke:#ee5b26;stroke-width:10;stroke-linecap:butt;stroke-linejoin:miter;stroke-dasharray:none;fill-opacity:1;stroke-opacity:1;stroke-miterlimit:4"
     id="path17" />
  <path
     d="m 18.1884,855.11109 c -3.4676,81.9919 -13.8705,156.61961 -11.3053,219.43771 3.4604,84.7086 23.3686,150.0038 48.2748,202.1878 22.4222,46.98 50.8541,74.0933 72.9406,90.3543 64.9765,47.8386 120.8756,-15.8641 169.8255,-83.2693 39.7422,-54.7278 123.5206,-89.394 75.6014,-152.5374 -14.5372,-19.155 -108.3389,-36.666 -140.8443,-67.7407 C 162.8963,996.82159 95.4042,891.18519 18.1884,855.11109 Z"
     style="fill:#383018;fill-rule:evenodd;stroke:#ee5b26;stroke-width:10;stroke-linecap:butt;stroke-linejoin:miter;stroke-dasharray:none;fill-opacity:1;stroke-opacity:1;stroke-miterlimit:4"
     id="path19" />
  <path
     d="m 389.2073,409.51089 c -14.3359,8.5928 -15.3428,-15.038 -36.365,43.4432 -3.4819,9.6886 -4.6748,36.0878 -5.5364,46.2322 42.1986,-1.2067 29.216,7.6498 55.4177,-22.0088 l 20.9283,-23.4201 z M 1604.916,1348.0745 c -89.4907,-286.2289 -282.9538,-468.82341 -605.6723,-568.09311 -65.598,-20.1758 -252.2825,-44.3254 -268.0748,-10.0877 l -84.9834,30.1454 c -2.2125,0.8729 -5.5769,2.539 -7.6799,3.5079 -860.5096,244.74521 340.0631,-332.094 188.7377,-324.3383 -365.0541,-98.4701 -374.8943,300.6579 -613.4997,144.2252 65.0507,-233.5352 130.4825,-323.5997 -63.1153,-450.4367 l 11.9012,-44.8472 c 17.7427,-12.2507 13.4126,-10.0048 38.6818,-20.0583 L 312.2122,78.169385 c 54.2857,-11.9708 99.3595,-16.0694 159.941,-13.8458 432.5209,15.8747 636.3551,368.928405 814.7222,598.374905 166.055,213.6045 534.0397,600.25091 862.3652,415.06571 73.6006,-41.5142 209.4287,-179.61041 230.5702,-218.27651 2.4507,-4.4836 5.7804,-4.0467 8.6997,-6.0233 19.61,215.26391 43.2228,440.92901 -185.08,563.21541 -154.5265,82.7712 -380.808,23.2709 -526.0385,-116.0528 -59.4243,-57.0068 -49.7455,28.485 -72.476,47.4475 z"
     style="fill:#383018;fill-rule:evenodd;stroke:#ee5b26;stroke-width:10;stroke-linecap:butt;stroke-linejoin:miter;stroke-dasharray:none;fill-opacity:1;stroke-opacity:1;stroke-miterlimit:4"
     id="path21" />
  <path
     d="m 1602.6832,1503.0632 c -37.9711,157.1414 -136.8446,294.6516 -245.6423,402.4112 -1.77,-4.0605 -6.6584,-12.9333 -8.1903,-15.3977 -1.252,-2.0093 -4.5285,-7.1039 -5.8224,-9.1525 -1.4149,-2.2452 -4.5144,-6.5246 -6.6598,-9.8627 131.5315,-399.9161 -203.0107,-1014.25811 -605.1995,-1101.16781 72.6113,-21.2674 133.9114,28.4009 209.5057,55.041 133.4898,47.0436 258.1343,144.1495 358.7603,235.78211 123.3679,110.5197 322.3196,324.8154 303.2483,442.3464 z"
     style="fill:#383018;fill-rule:evenodd;stroke:#ee5b26;stroke-width:10;stroke-linecap:butt;stroke-linejoin:miter;stroke-dasharray:none;fill-opacity:1;stroke-opacity:1;stroke-miterlimit:4"
     id="path23" />
  <path
     d="m 1602.9635,1471.3176 c -7.3771,-80.752 -245.6344,-356.957 -303.5286,-410.6008 -100.626,-91.63261 -225.2705,-188.73851 -358.7603,-235.78211 -110.1514,-38.8191 -111.8411,-29.775 -209.5057,-55.041 15.7923,-34.2377 202.4768,-10.0881 268.0748,10.0877 217.1113,53.2041 713.492,340.96171 603.7198,691.33621 z"
     style="fill:#383018;fill-rule:evenodd;stroke:#ee5b26;stroke-width:10;stroke-linecap:butt;stroke-linejoin:miter;stroke-dasharray:none;fill-opacity:1;stroke-opacity:1;stroke-miterlimit:4"
     id="path25" />
  <path
     d="m 150.6283,172.99719 -38.3257,-19.0545 c 35.0483,-29.8754 7.0313,-15.5147 50.2269,-25.7927 z"
     style="fill:#383018;fill-rule:evenodd;stroke:#ee5b26;stroke-width:10;stroke-linecap:butt;stroke-linejoin:miter;stroke-dasharray:none;fill-opacity:1;stroke-opacity:1;stroke-miterlimit:4"
     id="path27" />
  <path
     d="m 1357.0409,1905.4744 c -31.9588,17.6354 21.012,33.7778 -35.4741,11.2776 l 14.8016,-45.6905 c 7.2718,11.3139 15.2288,21.9257 20.6725,34.4129 z"
     style="fill:#383018;fill-rule:evenodd;stroke:#ee5b26;stroke-width:10;stroke-linecap:butt;stroke-linejoin:miter;stroke-dasharray:none;fill-opacity:1;stroke-opacity:1;stroke-miterlimit:4"
     id="path29" />
  <path
     d="m 2388.5118,853.46649 c 3.4675,81.9919 13.8704,156.61971 11.3052,219.43771 -3.4604,84.7086 -23.3685,150.0038 -48.2748,202.1878 -22.4221,46.9801 -50.854,74.0933 -72.9406,90.3543 -64.9764,47.8386 -120.8756,-15.8641 -169.8254,-83.2692 -39.7423,-54.7279 -123.5207,-89.394 -75.6015,-152.5375 14.5373,-19.155 108.339,-36.666 140.8443,-67.7407 69.7848,-66.72181 137.2769,-172.35831 214.4928,-208.43241 z"
     style="fill:#383018;fill-rule:evenodd;stroke:#ee5b26;stroke-width:10;stroke-linecap:butt;stroke-linejoin:miter;stroke-dasharray:none;fill-opacity:1;stroke-opacity:1;stroke-miterlimit:4"
     id="path31" />
  <defs
     id="defs39">
    <linearGradient
       id="grad1">
      <stop
         offset="0%"
         stop-color="#7d7b78"
         stop-opacity="1.0000"
         id="stop33" />
      <stop
         offset="100%"
         stop-color="#ffffff"
         stop-opacity="1.0000"
         id="stop35" />
    </linearGradient>
    <linearGradient
       xlink:href="#grad1"
       id="grad2"
       x1="0"
       y1="0"
       x2="0"
       y2="1"
       gradientTransform="rotate(1,0.5,0.5)"
       gradientUnits="objectBoundingBox" />
  </defs>
</svg>
