<svg xmlns="http://www.w3.org/2000/svg" viewBox="0 0 167 34" xmlns:v="https://vecta.io/nano"><path d="M65.7 8.8v16.7h-3.4V12.1l-1.9 7.2h-2.9l-1.9-7.2v13.4h-3.4V8.8h4.7l2 7.6 2-7.6h4.8zm13.1 16.7h-3.4l-.7-4.1h-3.5l-.7 4.1H67l3.7-16.7h4.4l3.7 16.7zm-4.5-6.2l-1.4-7.6-1.4 7.6h2.8zm17.6-5.6v.6c0 2.2-.4 3.5-1.4 4.2-.8.6-1.9.8-3.6.8h-3.4v6.2h-3.4V8.8h6.8c2 0 3.2.3 4 1.1.7.7 1 2 1 3.8zm-3.4-2c0-.5-.4-.8-.8-.8h-4.2v6.2h4.2c.5 0 .8-.4.8-.8v-4.6zm16.6 11.7v2.1H93.3V8.8h3.4v14.6h8.4zm12.8 2.1h-3.4l-.7-4.1h-3.5l-.7 4.1h-3.4l3.7-16.7h4.4l3.6 16.7zm-4.5-6.2l-1.4-7.6-1.4 7.6h2.8zm17.6 6.8v2.1c-1.3 0-2.2-.1-2.8-.5s-.9-1-1.1-2c-.5.1-1 .1-1.7.1h-1.8c-2 0-3.2-.3-4-1.1-.7-.8-1-2-1-3.8v-7.3c0-2.1.3-3.4 1.2-4.1.8-.6 2-.9 3.7-.9h1.8c1.9 0 3.2.3 3.9 1 .8.8 1 2 1 3.9v7.3c0 2-.3 3.2-1.1 4-.4.3-.8.6-1.4.7.1.3.4.6.8.6h2.5zm-3.9-14.6c0-.5-.4-.8-.8-.8h-3.4c-.5 0-.8.4-.8.8v11.2c0 .5.4.8.8.8h3.4c.5 0 .8-.4.8-.8V11.5zm16.7-2.7v12c0 2-.3 3.2-1.1 4-.8.7-2 1-3.9 1H137c-2 0-3.2-.3-4-1.1-.7-.8-1-2-1-3.8v-12h3.4v14c0 .5.4.8.8.8h3.4c.5 0 .8-.4.8-.8v-14h3.4zm5.2 2.1v5.2h6.7v2.1H149v5.2h8.4v2.1h-11.7V8.8h11.7v2.1H149zM40.7.6h-3.6c.9 1.1 1.4 2.6 1.4 4.1v22.7a1.3 1.3 0 0 1-.8 1.2c-.2.1-.4.1-.6.1-.3 0-.6-.1-.9-.3l-10.9-9.1c-.6-.5-.7-1.3-.2-1.9s1.3-.7 1.9-.2l8.7 7.2V4.7c0-2.3-1.8-4.1-4.1-4.1H18a4.95 4.95 0 0 0-5 5v22.7a4.95 4.95 0 0 0 5 5h3.6c-.9-1.1-1.4-2.6-1.4-4.1V6.5a1.3 1.3 0 0 1 .8-1.2c.5-.2 1-.2 1.5.2l10.9 9.1c.6.5.7 1.3.2 1.9s-1.3.7-1.9.2L23 9.5v19.8c0 2.3 1.8 4.1 4.1 4.1h13.6a4.95 4.95 0 0 0 5-5V5.6c0-2.7-2.2-5-5-5z"/></svg>